<svg width="407.96119384765626px" height="120.8px" xmlns="http://www.w3.org/2000/svg" viewBox="46.01940307617187 14.600000000000001 407.96119384765626 120.8" style="background: rgba(0, 0, 0, 0);" preserveAspectRatio="xMidYMid"><defs><linearGradient id="editing-gradient-gradient" x1="0" x2="1" y1="0.5" y2="0.5" gradientUnits="objectBoundingBox"><stop offset="0" stop-color="#f0f"></stop><stop offset="1" stop-color="#0ff"></stop></linearGradient></defs><g><g transform="translate(108.79852020740509, 97.43000030517578)"><path d="M26.05-29.57L26.05-29.57L26.05-29.57Q27.01-31.49 27.01-33.28L27.01-33.28L27.01-33.28Q27.01-35.07 26.82-36.06L26.82-36.06L26.82-36.06Q26.62-37.06 26.18-37.82L26.18-37.82L26.18-37.82Q25.22-39.49 23.30-39.49L23.30-39.49L23.30-39.49Q20.93-39.49 19.01-37.76L19.01-37.76L19.01-37.76Q16.96-35.97 16.96-33.15L16.96-33.15L16.96-33.15Q16.96-31.36 18.21-29.98L18.21-29.98L18.21-29.98Q19.46-28.61 21.38-27.33L21.38-27.33L21.38-27.33Q23.30-26.05 25.47-24.77L25.47-24.77L25.47-24.77Q27.65-23.49 29.57-21.95L29.57-21.95L29.57-21.95Q33.98-18.43 33.98-13.70L33.98-13.70L33.98-13.70Q33.98-10.50 32.29-7.78L32.29-7.78L32.29-7.78Q30.59-5.06 27.78-3.07L27.78-3.07L27.78-3.07Q21.63 1.28 13.50 1.28L13.50 1.28L13.50 1.28Q6.91 1.28 3.52-0.86L3.52-0.86L3.52-0.86Q0.13-3.01 0.13-6.27L0.13-6.27L0.13-6.27Q0.13-12.10 4.67-13.57L4.67-13.57L4.67-13.57Q5.95-14.02 7.90-14.02L7.90-14.02L7.90-14.02Q9.86-14.02 12.10-13.18L12.10-13.18L12.10-13.18Q11.07-10.56 11.07-8.19L11.07-8.19L11.07-8.19Q11.07-3.07 14.72-3.07L14.72-3.07L14.72-3.07Q17.09-3.07 19.04-4.80L19.04-4.80L19.04-4.80Q20.99-6.53 20.99-8.48L20.99-8.48L20.99-8.48Q20.99-10.43 19.74-11.84L19.74-11.84L19.74-11.84Q18.50-13.25 16.64-14.37L16.64-14.37L16.64-14.37Q14.78-15.49 12.64-16.58L12.64-16.58L12.64-16.58Q10.50-17.66 8.64-19.20L8.64-19.20L8.64-19.20Q4.29-22.72 4.29-28.35L4.29-28.35L4.29-28.35Q4.29-32 6.08-34.85L6.08-34.85L6.08-34.85Q7.87-37.70 10.75-39.62L10.75-39.62L10.75-39.62Q16.51-43.52 23.58-43.52L23.58-43.52L23.58-43.52Q30.66-43.52 34.08-41.41L34.08-41.41L34.08-41.41Q37.50-39.30 37.50-35.71L37.50-35.71L37.50-35.71Q37.50-32.58 35.07-30.59L35.07-30.59L35.07-30.59Q32.96-28.93 30.40-28.93L30.40-28.93L30.40-28.93Q27.84-28.93 26.05-29.57ZM45.44 0L38.40 0L46.08-42.24L59.84-42.24L69.82-13.18L75.14-42.24L82.24-42.18L74.43 0L59.78 0L50.56-27.97L45.44 0ZM84.80-15.62L84.80-15.62L84.80-15.62Q84.80-27.71 91.07-35.33L91.07-35.33L91.07-35.33Q97.73-43.58 109.31-43.58L109.31-43.58L109.31-43.58Q117.70-43.58 121.92-39.52L121.92-39.52L121.92-39.52Q126.14-35.46 126.14-26.88L126.14-26.88L126.14-26.88Q126.14-13.82 119.49-6.21L119.49-6.21L119.49-6.21Q112.90 1.28 101.82 1.28L101.82 1.28L101.82 1.28Q93.18 1.28 88.99-3.04L88.99-3.04L88.99-3.04Q84.80-7.36 84.80-15.62ZM101.63-28.86L101.63-28.86L101.63-28.86Q98.75-17.34 98.75-8.26L98.75-8.26L98.75-8.26Q98.75-6.08 99.49-4.67L99.49-4.67L99.49-4.67Q100.22-3.26 102.18-3.26L102.18-3.26L102.18-3.26Q104.13-3.26 105.34-4.19L105.34-4.19L105.34-4.19Q106.56-5.12 107.52-7.23L107.52-7.23L107.52-7.23Q109.06-10.69 110.50-18.02L110.50-18.02L110.50-18.02Q111.94-25.34 112.06-28.38L112.06-28.38L112.06-28.38Q112.19-31.42 112.19-33.73L112.19-33.73L112.19-33.73Q112.19-36.03 111.49-37.50L111.49-37.50L111.49-37.50Q110.78-38.98 108.90-38.98L108.90-38.98L108.90-38.98Q107.01-38.98 105.73-37.82L105.73-37.82L105.73-37.82Q103.36-35.65 101.63-28.86ZM130.24-15.62L130.24-15.62L130.24-15.62Q130.24-27.71 136.51-35.33L136.51-35.33L136.51-35.33Q143.17-43.58 154.75-43.58L154.75-43.58L154.75-43.58Q163.14-43.58 167.36-39.52L167.36-39.52L167.36-39.52Q171.58-35.46 171.58-26.88L171.58-26.88L171.58-26.88Q171.58-13.82 164.93-6.21L164.93-6.21L164.93-6.21Q158.34 1.28 147.26 1.28L147.26 1.28L147.26 1.28Q138.62 1.28 134.43-3.04L134.43-3.04L134.43-3.04Q130.24-7.36 130.24-15.62ZM147.07-28.86L147.07-28.86L147.07-28.86Q144.19-17.34 144.19-8.26L144.19-8.26L144.19-8.26Q144.19-6.08 144.93-4.67L144.93-4.67L144.93-4.67Q145.66-3.26 147.62-3.26L147.62-3.26L147.62-3.26Q149.57-3.26 150.78-4.19L150.78-4.19L150.78-4.19Q152-5.12 152.96-7.23L152.96-7.23L152.96-7.23Q154.50-10.69 155.94-18.02L155.94-18.02L155.94-18.02Q157.38-25.34 157.50-28.38L157.50-28.38L157.50-28.38Q157.63-31.42 157.63-33.73L157.63-33.73L157.63-33.73Q157.63-36.03 156.93-37.50L156.93-37.50L156.93-37.50Q156.22-38.98 154.34-38.98L154.34-38.98L154.34-38.98Q152.45-38.98 151.17-37.82L151.17-37.82L151.17-37.82Q148.80-35.65 147.07-28.86ZM200.64-20.61L213.57-21.76L213.57-21.76Q208.96-11.65 208.96 0.06L208.96 0.06L208.96 0.06Q207.23 1.28 204.70 1.28L204.70 1.28L204.70 1.28Q202.18 1.28 200.58 0.10L200.58 0.10L200.58 0.10Q198.98-1.09 198.66-2.30L198.66-2.30L198.66-2.30Q197.06-0.64 194.46 0.32L194.46 0.32L194.46 0.32Q191.87 1.28 189.12 1.28L189.12 1.28L189.12 1.28Q186.37 1.28 183.97 0.38L183.97 0.38L183.97 0.38Q181.57-0.51 179.71-2.50L179.71-2.50L179.71-2.50Q175.62-6.85 175.62-15.10L175.62-15.10L175.62-15.10Q175.62-27.90 182.46-35.58L182.46-35.58L182.46-35.58Q189.50-43.52 201.98-43.52L201.98-43.52L201.98-43.52Q210.62-43.52 213.70-39.04L213.70-39.04L213.70-39.04Q214.66-37.63 214.66-35.94L214.66-35.94L214.66-35.94Q214.66-34.24 213.92-32.80L213.92-32.80L213.92-32.80Q213.18-31.36 212.03-30.21L212.03-30.21L212.03-30.21Q209.28-27.65 205.89-27.65L205.89-27.65L205.89-27.65Q204.54-27.65 203.26-28.10L203.26-28.10L203.26-28.10Q203.52-30.02 203.52-32.26L203.52-32.26L203.52-32.26Q203.52-34.50 203.36-35.52L203.36-35.52L203.36-35.52Q203.20-36.54 202.82-37.38L202.82-37.38L202.82-37.38Q201.98-39.10 200.16-39.10L200.16-39.10L200.16-39.10Q198.34-39.10 196.32-37.15L196.32-37.15L196.32-37.15Q194.30-35.20 192.70-32L192.70-32L192.70-32Q189.18-24.83 189.18-16.19L189.18-16.19L189.18-16.19Q189.18-12.22 190.72-9.41L190.72-9.41L190.72-9.41Q192.38-6.34 195.33-6.34L195.33-6.34L195.33-6.34Q196.35-6.34 197.28-6.85L197.28-6.85L197.28-6.85Q198.21-7.36 198.59-7.74L198.59-7.74L200.64-20.61ZM243.46-9.86L243.46-9.86L243.46-9.86Q244.67-8.32 244.67-5.34L244.67-5.34L244.67-5.34Q244.67-2.37 242.40-0.54L242.40-0.54L242.40-0.54Q240.13 1.28 236.16 1.28L236.16 1.28L236.16 1.28Q233.86 1.28 230.27 0.77L230.27 0.77L230.27 0.77Q223.23-0.32 221.22-0.32L221.22-0.32L221.22-0.32Q219.20-0.32 218.37-0.22L218.37-0.22L218.37-0.22Q217.54-0.13 216.19 0L216.19 0L223.94-42.24L237.95-42.24L231.55-7.04L231.55-7.04Q232.38-6.91 233.15-6.91L233.15-6.91L234.75-6.91L234.75-6.91Q240.13-6.91 243.46-9.86ZM276.29-9.86L276.29-9.86L276.29-9.86Q277.50-8.32 277.50-5.82L277.50-5.82L277.50-5.82Q277.50-2.37 274.94-0.54L274.94-0.54L274.94-0.54Q272.38 1.28 268.35 1.28L268.35 1.28L268.35 1.28Q266.05 1.28 262.53 0.77L262.53 0.77L262.53 0.77Q255.62-0.32 253.50-0.32L253.50-0.32L253.50-0.32Q251.39-0.32 250.56-0.22L250.56-0.22L250.56-0.22Q249.73-0.13 248.38 0L248.38 0L256.26-42.24L283.84-42.24L283.84-42.24Q283.84-38.34 281.95-36.29L281.95-36.29L281.95-36.29Q280.06-34.24 276.35-34.24L276.35-34.24L276.35-34.24Q272.64-34.24 268.86-35.97L268.86-35.97L266.88-24.77L278.27-24.77L278.27-24.77Q278.27-21.38 276.61-19.49L276.61-19.49L276.61-19.49Q274.94-17.60 272.16-17.60L272.16-17.60L272.16-17.60Q269.38-17.60 267.65-18.24L267.65-18.24L267.65-18.24Q265.92-18.88 265.73-19.07L265.73-19.07L263.42-6.98L263.42-6.98Q264.96-6.78 267.84-6.78L267.84-6.78L267.84-6.78Q272.77-6.78 276.29-9.86Z" fill="url(#editing-gradient-gradient)"></path></g></g><style>text {
  font-size: 64px;
  font-family: Arial Black;
  dominant-baseline: central;
  text-anchor: middle;
}</style></svg>